# xmcd
#
# Track frame offsets:
#	150
#	10108
#	27328
#	40788
#	54146
#	70101
#	82193
#	92786
#	104801
#	119876
#	130266
#	141983
#	152816
#	169108
#	180181
#
# Disc length: 2625 seconds
#
# Revision: 0
# Processed by: cddbd v1.5.2PL0 Copyright (c) Steve Scherf et al.
# Submitted via: dBpowerAMP V4.0
#
DISCID=cb0a3f0f
DTITLE=John Lee Hooker - Blues Gems
DYEAR=1900
DGENRE=Blues
TTITLE0=01 - Dimples
TTITLE1=02 - Blues Before Sunrise
TTITLE2=03 - I'm Goin' Upstairs
TTITLE3=04 - Baby Lee
TTITLE4=05 - Thelma
TTITLE5=06 - I'm In The Mood
TTITLE6=07 - Let's Make It
TTITLE7=08 - Whiskey And Wimmen
TTITLE8=09 - Crawling King Snake
TTITLE9=10 - Old Time Shimmy
TTITLE10=11 - Little Wheel
TTITLE11=12 - No Shoes
TTITLE12=13 - Process
TTITLE13=14 - Good Rockin' Mama
TTITLE14=15 - When My First Wife Left Me
EXTD=
EXTT0=
EXTT1=
EXTT2=
EXTT3=
EXTT4=
EXTT5=
EXTT6=
EXTT7=
EXTT8=
EXTT9=
EXTT10=
EXTT11=
EXTT12=
EXTT13=
EXTT14=
PLAYORDER=
